Dnevnoy.Dozor.BDRip.720p.x264.MIF

Day Watch
 
http://www.imdb.com/title/tt0409904/

Director: Timur Bekmambetov

Release Date: 1 January 2006

Genre: Action , Fantasy , Thriller 

Plot:
A man (Khabensky) who serves in the war between the forces of Light and Dark comes into possession of a device that can restore life to Moscow, which was nearly destroyed by an apocalyptic event

Cast:
Konstantin Khabenskiy	 ...	Anton
Mariya Poroshina	 ...	Svetlana
Vladimir Menshov	 ...	Geser
Galina Tyunina	 ...	Olga
Viktor Verzhbitskiy	 ...	Zavulon
Zhanna Friske	 ...	Alisa
Dmitriy Martynov	 ...	Yegor (as Dima Martynov)
Valeriy Zolotukhin	 ...	Kostya's Father
Aleksey Chadov	 ...	Kostya
Nurzhuman Ikhtymbayev	 ...	Zoar
Aleksey Maklakov	 ...	Semyon
Aleksandr Samoylenko	 ...	Bear (Medved)
Yuriy Kutsenko	 ...	Ignat (as Gosha Kutsenko)
Irina Yakovleva	 ...	Galina Rogova
Georgiy Dronov	 ...	Tolik (as Yegor Dronov)


Runtime: 132 min 

Country: Russia

Language: Russian





General
Complete name                    : Dnevnoy.Dozor.BDRip.720p.x264.MIF.mkvDnevnoy.Dozor.BDRip.720p.x264.MIF.mkv
Format                           : Matroska
File size                        : 7.95 GiB
Duration                         : 2h 25mn
Overall bit rate                 : 7 805 Kbps
Encoded date                     : UTC 2008-07-26 23:52:12
Writing application              : mkvmerge v2.2.0 ('Turn It On Again') built on Mar  4 2008 12:58:26
Writing library                  : libebml v0.7.7 + libmatroska v0.8.1

Video
ID                               : 1
Format                           : AVC
Format/Info                      : Advanced Video Codec
Format profile                   : High@L3.1
Format settings, CABAC           : Yes
Format settings, ReFrames        : 5 frames
Muxing mode                      : Container profile=Unknown@3.1
Codec ID                         : V_MPEG4/ISO/AVC
Duration                         : 2h 25mn
Bit rate                         : 6 264 Kbps
Width                            : 1 280 pixels
Height                           : 544 pixels
Display aspect ratio             : 2.35:1
Frame rate                       : 23.976 fps
Resolution                       : 8 bits
Colorimetry                      : 4:2:0
Scan type                        : Progressive
Bits/(Pixel*Frame)               : 0.375
Stream size                      : 6.25 GiB (79%)
Writing library                  : x264 core 60 r920 32f09c4
Encoding settings                : cabac=1 / ref=5 / deblock=1:0:0 / analyse=0x3:0x113 / me=umh / subme=7 / brdo=1 / mixed_ref=1 / me_range=16 / chroma_me=1 / trellis=1 / 8x8dct=1 / cqm=0 / deadzone=21,11 / chroma_qp_offset=0 / threads=6 / nr=0 / decimate=1 / mbaff=0 / bframes=3 / b_pyramid=1 / b_adapt=1 / b_bias=0 / direct=1 / wpredb=1 / bime=1 / keyint=250 / keyint_min=25 / scenecut=40(pre) / rc=2pass / bitrate=6264 / ratetol=1.0 / rceq='blurCplx^(1-qComp)' / qcomp=1.00 / qpmin=10 / qpmax=51 / qpstep=4 / cplxblur=20.0 / qblur=0.5 / ip_ratio=1.40 / pb_ratio=1.30 / aq=2:1.00
Language                         : English

Audio #1
ID                               : 2
Format                           : DTS
Format/Info                      : Digital Theater Systems
Codec ID                         : A_DTS
Duration                         : 2h 25mn
Bit rate mode                    : Constant
Bit rate                         : 755 Kbps
Channel(s)                       : 6 channels
Channel positions                : Front: L C R, Side: L R, LFE
Sampling rate                    : 48.0 KHz
Resolution                       : 24 bits
Stream size                      : 787 MiB (10%)
Language                         : Russian

Audio #2
ID                               : 3
Format                           : DTS
Format/Info                      : Digital Theater Systems
Codec ID                         : A_DTS
Duration                         : 2h 25mn
Bit rate mode                    : Constant
Bit rate                         : 755 Kbps
Channel(s)                       : 6 channels
Channel positions                : Front: L C R, Side: L R, LFE
Sampling rate                    : 48.0 KHz
Resolution                       : 24 bits
Stream size                      : 787 MiB (10%)
Language                         : English

Text
ID                               : 4
Format                           : UTF-8
Codec ID                         : S_TEXT/UTF8
Codec ID/Info                    : UTF-8 Plain Text
Language                         : English